<svg width="1024" height="1024" viewBox="0 0 1024 1024" fill="none" xmlns="http://www.w3.org/2000/svg">
  <defs>
    <linearGradient id="bg" x1="120" y1="70" x2="900" y2="960" gradientUnits="userSpaceOnUse">
      <stop stop-color="#0F1D38"/>
      <stop offset="1" stop-color="#081023"/>
    </linearGradient>
    <linearGradient id="panel" x1="250" y1="210" x2="780" y2="820" gradientUnits="userSpaceOnUse">
      <stop stop-color="#D7E6FF" stop-opacity="0.24"/>
      <stop offset="1" stop-color="#A6C0EA" stop-opacity="0.08"/>
    </linearGradient>
    <radialGradient id="king" cx="0" cy="0" r="1" gradientUnits="userSpaceOnUse" gradientTransform="translate(512 512) rotate(90) scale(170)">
      <stop stop-color="#FFD97A"/>
      <stop offset="1" stop-color="#C78F2D"/>
    </radialGradient>
  </defs>

  <rect x="36" y="36" width="952" height="952" rx="220" fill="url(#bg)"/>
  <rect x="36" y="36" width="952" height="952" rx="220" stroke="#D5E3FF" stroke-opacity="0.3" stroke-width="3"/>

  <rect x="210" y="210" width="604" height="604" rx="120" fill="url(#panel)"/>
  <rect x="250" y="250" width="524" height="524" rx="86" fill="#1D2A44" fill-opacity="0.95"/>

  <g stroke="#AFC6EE" stroke-opacity="0.24" stroke-width="3">
    <line x1="297" y1="250" x2="297" y2="774"/>
    <line x1="344" y1="250" x2="344" y2="774"/>
    <line x1="391" y1="250" x2="391" y2="774"/>
    <line x1="438" y1="250" x2="438" y2="774"/>
    <line x1="485" y1="250" x2="485" y2="774"/>
    <line x1="532" y1="250" x2="532" y2="774"/>
    <line x1="579" y1="250" x2="579" y2="774"/>
    <line x1="626" y1="250" x2="626" y2="774"/>
    <line x1="673" y1="250" x2="673" y2="774"/>
    <line x1="720" y1="250" x2="720" y2="774"/>

    <line x1="250" y1="297" x2="774" y2="297"/>
    <line x1="250" y1="344" x2="774" y2="344"/>
    <line x1="250" y1="391" x2="774" y2="391"/>
    <line x1="250" y1="438" x2="774" y2="438"/>
    <line x1="250" y1="485" x2="774" y2="485"/>
    <line x1="250" y1="532" x2="774" y2="532"/>
    <line x1="250" y1="579" x2="774" y2="579"/>
    <line x1="250" y1="626" x2="774" y2="626"/>
    <line x1="250" y1="673" x2="774" y2="673"/>
    <line x1="250" y1="720" x2="774" y2="720"/>
  </g>

  <circle cx="512" cy="512" r="86" fill="url(#king)"/>
  <circle cx="512" cy="512" r="86" stroke="#FFECC3" stroke-opacity="0.88" stroke-width="3"/>
  <path d="M458 534H566M472 534L485 495L512 520L539 495L552 534" stroke="#6F4C18" stroke-width="13" stroke-linecap="round" stroke-linejoin="round"/>

  <!-- subtle rune accent -->
  <path d="M512 120L548 186H476L512 120Z" fill="#DBBC74" fill-opacity="0.9"/>
</svg>
