<svg width="1024" height="1024" viewBox="0 0 1024 1024" fill="none" xmlns="http://www.w3.org/2000/svg">
  <defs>
    <linearGradient id="bg" x1="80" y1="40" x2="940" y2="980" gradientUnits="userSpaceOnUse">
      <stop stop-color="#0F1B33"/>
      <stop offset="1" stop-color="#0A1224"/>
    </linearGradient>
    <linearGradient id="glass" x1="220" y1="180" x2="820" y2="840" gradientUnits="userSpaceOnUse">
      <stop stop-color="#D9E9FF" stop-opacity="0.35"/>
      <stop offset="1" stop-color="#9CB8E8" stop-opacity="0.12"/>
    </linearGradient>
    <radialGradient id="gold" cx="0" cy="0" r="1" gradientUnits="userSpaceOnUse" gradientTransform="translate(512 512) rotate(90) scale(220)">
      <stop stop-color="#FFD978"/>
      <stop offset="1" stop-color="#C79A3A"/>
    </radialGradient>
  </defs>

  <rect x="42" y="42" width="940" height="940" rx="210" fill="url(#bg)"/>
  <rect x="86" y="86" width="852" height="852" rx="176" stroke="#CFE1FF" stroke-opacity="0.35" stroke-width="3"/>

  <rect x="188" y="188" width="648" height="648" rx="120" fill="url(#glass)" stroke="#D6E6FF" stroke-opacity="0.35" stroke-width="2"/>

  <!-- board grid -->
  <g opacity="0.6">
    <rect x="274" y="274" width="476" height="476" rx="46" fill="#1E2B45"/>
    <g stroke="#AFC7EE" stroke-opacity="0.28" stroke-width="3">
      <line x1="317" y1="274" x2="317" y2="750"/>
      <line x1="360" y1="274" x2="360" y2="750"/>
      <line x1="403" y1="274" x2="403" y2="750"/>
      <line x1="446" y1="274" x2="446" y2="750"/>
      <line x1="489" y1="274" x2="489" y2="750"/>
      <line x1="532" y1="274" x2="532" y2="750"/>
      <line x1="575" y1="274" x2="575" y2="750"/>
      <line x1="618" y1="274" x2="618" y2="750"/>
      <line x1="661" y1="274" x2="661" y2="750"/>
      <line x1="704" y1="274" x2="704" y2="750"/>

      <line x1="274" y1="317" x2="750" y2="317"/>
      <line x1="274" y1="360" x2="750" y2="360"/>
      <line x1="274" y1="403" x2="750" y2="403"/>
      <line x1="274" y1="446" x2="750" y2="446"/>
      <line x1="274" y1="489" x2="750" y2="489"/>
      <line x1="274" y1="532" x2="750" y2="532"/>
      <line x1="274" y1="575" x2="750" y2="575"/>
      <line x1="274" y1="618" x2="750" y2="618"/>
      <line x1="274" y1="661" x2="750" y2="661"/>
      <line x1="274" y1="704" x2="750" y2="704"/>
    </g>
  </g>

  <!-- center king token -->
  <circle cx="512" cy="512" r="64" fill="url(#gold)"/>
  <circle cx="512" cy="512" r="64" stroke="#FFE8B0" stroke-opacity="0.85" stroke-width="3"/>
  <path d="M472 526H552M482 526L492 495L512 514L532 495L542 526" stroke="#6F4F19" stroke-width="11" stroke-linecap="round" stroke-linejoin="round"/>

  <!-- viking vibe rune mark -->
  <path d="M512 146L548 208H476L512 146Z" fill="#D8B56A" fill-opacity="0.9"/>
</svg>
